<svg xmlns="http://www.w3.org/2000/svg" width="820" height="442" viewBox="0 0 820 442">
  <g fill="none" fill-rule="evenodd" opacity=".2">
    <polygon fill="#B2B2B2" points="614.485 422.56 628.657 422.56 628.657 326.384 614.485 326.384"/>
    <polygon fill="#B2B2B2" points="562.856 425.63 577.028 425.63 577.028 360.148 562.856 360.148"/>
    <polygon fill="#B2B2B2" points="433.277 425.63 443.401 425.63 443.401 366.287 433.277 366.287"/>
    <polygon fill="#B2B2B2" points="472.758 424.606 482.882 424.606 482.882 362.194 472.758 362.194"/>
    <polygon fill="#B2B2B2" points="494.017 403.12 510.215 403.12 510.215 334.569 494.017 334.569"/>
    <polygon fill="#B2B2B2" points="445.425 403.12 462.635 403.12 462.635 323.315 445.425 323.315"/>
    <polygon fill="#B2B2B2" points="644.855 422.56 664.089 422.56 664.089 299.782 644.855 299.782"/>
    <polygon fill="#B2B2B2" points="748.112 425.63 767.346 425.63 767.346 340.708 748.112 340.708"/>
    <polygon fill="#B2B2B2" points="671.175 409.259 697.496 409.259 697.496 320.245 671.175 320.245"/>
    <polygon fill="#B2B2B2" points="614.485 422.56 643.842 422.56 643.842 340.708 614.485 340.708"/>
    <polygon fill="#B2B2B2" points="580.065 426.653 609.423 426.653 609.423 352.986 580.065 352.986"/>
    <polygon fill="#B2B2B2" points="256.12 427.676 270.292 427.676 270.292 333.546 256.12 333.546"/>
    <polygon fill="#B2B2B2" points="228.787 425.63 242.959 425.63 242.959 326.384 228.787 326.384"/>
    <polygon fill="#B2B2B2" points="368.488 416.421 387.723 416.421 387.723 295.69 368.488 295.69"/>
    <polygon fill="#B2B2B2" points="192.343 413.352 211.577 413.352 211.577 290.574 192.343 290.574"/>
    <polygon fill="#B2B2B2" points="337.106 414.375 363.427 414.375 363.427 325.361 337.106 325.361"/>
    <polygon fill="#636363" points="208.54 409.259 226.762 409.259 226.762 313.083 208.54 313.083"/>
    <polygon fill="#636363" points="244.984 434.838 263.206 434.838 263.206 349.917 244.984 349.917"/>
    <polygon fill="#636363" points="440.364 415.398 452.512 415.398 452.512 352.986 440.364 352.986"/>
    <polygon fill="#636363" points="390.76 411.306 402.908 411.306 402.908 348.894 390.76 348.894"/>
    <polygon fill="#636363" points="358.365 389.819 377.599 389.819 377.599 321.269 358.365 321.269"/>
    <polygon fill="#636363" points="417.08 389.819 437.327 389.819 437.327 310.014 417.08 310.014"/>
    <polygon fill="#636363" points="165.01 410.282 189.306 410.282 189.306 287.505 165.01 287.505"/>
    <polygon fill="#636363" points="36.444 438.931 60.74 438.931 60.74 327.407 36.444 327.407"/>
    <polygon fill="#636363" points="123.504 395.958 156.911 395.958 156.911 306.944 123.504 306.944"/>
    <polygon fill="#636363" points="190.318 410.282 226.762 410.282 226.762 327.407 190.318 327.407"/>
    <polygon fill="#636363" points="625.62 415.398 643.842 415.398 643.842 319.222 625.62 319.222"/>
    <polygon fill="#636363" points="690.409 436.884 708.631 436.884 708.631 312.06 690.409 312.06"/>
    <polygon fill="#636363" points="582.09 415.398 606.386 415.398 606.386 292.62 582.09 292.62"/>
    <polygon fill="#636363" points="729.89 400.051 754.186 400.051 754.186 277.273 729.89 277.273"/>
    <polygon fill="#636363" points="741.026 362.194 743.051 362.194 743.051 240.44 741.026 240.44"/>
    <polygon fill="#636363" points="539.572 400.051 572.979 400.051 572.979 311.037 539.572 311.037"/>
    <polygon fill="#636363" points="607.398 415.398 643.842 415.398 643.842 332.523 607.398 332.523"/>
    <polygon fill="#636363" points="649.916 427.676 686.36 427.676 686.36 344.801 649.916 344.801"/>
    <path fill="#303030" d="M499.078915,168.522813 C499.078915,167.074887 498.070943,165.719686 496.32601,164.542801 C498.070943,162.498112 499.078915,160.141964 499.078915,157.626521 C499.078915,154.117264 497.13429,150.919465 493.929699,148.45395 L493.929699,144.531 C493.929699,141.782557 489.198887,139.457317 482.670841,138.672727 L482.670841,87.6315772 C484.517997,86.6448958 485.725662,85.1303992 485.725662,83.4090562 C485.725662,81.2954181 483.914165,79.4813508 481.303898,78.6016589 L481.303898,48.7254204 L479.963105,48.7254204 L479.963105,37.6650781 L479.216635,37.6650781 L479.216635,0 L476.425693,0 L476.425693,37.6650781 L475.676846,37.6650781 L475.676846,48.7254204 L474.331298,48.7254204 L474.331298,78.6040364 C471.721031,79.4813508 469.914289,81.2954181 469.914289,83.4090562 C469.914289,85.1303992 471.121953,86.6448958 472.971487,87.6315772 L472.971487,138.672727 C466.441064,139.457317 461.705497,141.782557 461.705497,144.531 L461.705497,148.45395 C458.508038,150.919465 456.561036,154.117264 456.561036,157.626521 C456.561036,160.141964 457.569008,162.498112 459.309186,164.542801 C457.569008,165.719686 456.561036,167.074887 456.561036,168.522813 C456.561036,172.101019 462.649282,175.134767 471.091048,176.209418 C470.09734,301.299226 458.023071,442 458.023071,442 L477.818787,442 L497.61688,442 C497.61688,442 485.544988,301.299226 484.546525,176.209418 C492.985914,175.134767 499.078915,172.101019 499.078915,168.522813"/>
    <polygon fill="#303030" points="201.454 442 405.945 442 405.945 398.005 201.454 398.005"/>
    <path fill="#303030" d="M403.919852,424.606481 C402.634062,388.297946 358.032628,359.125 303.191798,359.125 C248.353316,359.125 203.749535,388.297946 202.466091,424.606481 L403.919852,424.606481 Z"/>
    <path fill="#1C1C1C" d="M371.525277,408.236111 C361.847443,389.196841 334.916073,375.49537 303.192972,375.49537 C271.46987,375.49537 244.5385,389.196841 234.860666,408.236111 L371.525277,408.236111 Z"/>
    <polygon fill="#303030" points="396.834 442 429.228 442 429.228 372.426 396.834 372.426"/>
    <polygon fill="#303030" points="498.067 442 527.424 442 527.424 333.546 498.067 333.546"/>
    <polygon fill="#303030" points="530.461 442 573.991 442 573.991 327.407 530.461 327.407"/>
    <polygon fill="#303030" points="584.115 442 617.522 442 617.522 352.986 584.115 352.986"/>
    <polygon fill="#303030" points="695.471 442 739.001 442 739.001 327.407 695.471 327.407"/>
    <polygon fill="#303030" points="748.112 442 791.642 442 791.642 317.176 748.112 317.176"/>
    <polygon fill="#303030" points="626.633 442 660.039 442 660.039 380.611 626.633 380.611"/>
    <polygon fill="#303030" points="665.101 442 688.385 442 688.385 362.194 665.101 362.194"/>
    <polygon fill="#303030" points="785.568 442 808.852 442 808.852 362.194 785.568 362.194"/>
    <polygon fill="#303030" points="426.191 442 462.635 442 462.635 386.75 426.191 386.75"/>
    <polygon fill="#303030" points="507.178 442 543.621 442 543.621 395.958 507.178 395.958"/>
    <polygon fill="#303030" points="555.769 442 592.213 442 592.213 384.704 555.769 384.704"/>
    <polygon fill="#303030" points="596.263 442 632.707 442 632.707 414.375 596.263 414.375"/>
    <polygon fill="#303030" points="651.941 442 679.274 442 679.274 422.56 651.941 422.56"/>
    <polygon fill="#303030" points="681.298 442 708.631 442 708.631 398.005 681.298 398.005"/>
    <polygon fill="#303030" points="727.866 442 755.199 442 755.199 391.866 727.866 391.866"/>
    <polygon fill="#303030" points="793.667 442 821 442 821 391.866 793.667 391.866"/>
    <polygon fill="#303030" points="87.06 442 130.591 442 130.591 275.227 87.06 275.227"/>
    <polygon fill="#303030" points="89.085 411.306 127.554 411.306 127.554 266.019 89.085 266.019"/>
    <polygon fill="#303030" points="93.134 375.495 123.504 375.495 123.504 259.88 93.134 259.88"/>
    <polygon fill="#303030" points="93.134 375.495 123.504 375.495 123.504 259.88 93.134 259.88"/>
    <polygon fill="#303030" points="95.159 351.963 120.467 351.963 120.467 254.764 95.159 254.764"/>
    <polygon fill="#303030" points="139.702 442 183.232 442 183.232 330.477 139.702 330.477"/>
    <polygon fill="#303030" points="18.222 442 51.629 442 51.629 366.287 18.222 366.287"/>
    <polygon fill="#303030" points="57.703 442 80.986 442 80.986 310.014 57.703 310.014"/>
    <polygon fill="#303030" points="177.158 442 200.441 442 200.441 362.194 177.158 362.194"/>
    <polygon fill="#303030" points="0 442 36.444 442 36.444 398.005 0 398.005"/>
    <polygon fill="#303030" points="43.53 442 70.863 442 70.863 422.56 43.53 422.56"/>
    <polygon fill="#303030" points="72.888 442 100.221 442 100.221 398.005 72.888 398.005"/>
    <polygon fill="#303030" points="119.455 442 146.788 442 146.788 391.866 119.455 391.866"/>
    <polygon fill="#303030" points="185.256 442 212.589 442 212.589 391.866 185.256 391.866"/>
    <polygon fill="#303030" points="475.795 442 512.239 442 512.239 403.12 475.795 403.12"/>
  </g>
</svg>
