<?xml version="1.0" encoding="UTF-8"?>
<svg width="60px" height="60px" viewBox="0 0 60 60" version="1.1" xmlns="http://www.w3.org/2000/svg" xmlns:xlink="http://www.w3.org/1999/xlink">
    <!-- Generator: Sketch 54 (76480) - https://sketchapp.com -->
    <title>Group 5</title>
    <desc>Created with Sketch.</desc>
    <g id="Main-Page" stroke="none" stroke-width="1" fill="none" fill-rule="evenodd">
        <g transform="translate(-1095.000000, -1003.000000)" id="Projects">
            <g transform="translate(35.000000, 900.000000)">
                <g id="Games" transform="translate(884.000000, 103.000000)">
                    <g id="Group-5" transform="translate(176.000000, -0.000000)">
                        <rect id="Rectangle" fill="#FFFFFF" x="0" y="1.13686838e-13" width="60" height="60"></rect>
                        <path d="M56.1252599,21.7656899 C58.5216347,23.9491295 59.884518,27.0432692 59.8776962,30.2850506 L59.8776962,54.2648779 C59.8796452,56.7055938 58.3033395,58.8675936 55.97908,59.6126234 C53.6548206,60.357166 51.115677,59.5137084 49.6987072,57.52615 L42.9598168,48.0868309 C41.1544958,49.5729924 38.7858953,50.1874351 36.4859993,49.7669244 C34.1861032,49.3459265 32.1883121,47.9328548 31.0256951,45.9043659 L28.8622336,45.9043659 C27.6957186,47.9309057 25.6974402,49.3420284 23.3975441,49.7635135 C21.0971608,50.1849987 18.7285603,49.573967 16.9193412,48.092678 L10.1809382,57.52615 C8.76396823,59.5117594 6.22628632,60.3542425 3.9030015,59.6106743 C1.57971667,58.8671063 0.00292359667,56.7075429 0.00243632432,54.2678015 L0.00243632432,29.9376299 C0.00487266112,26.7669893 1.38188669,23.7537357 3.7772869,21.6770076 L4.75766632,17.7291775 C5.01543006,16.6913007 5.80480116,15.8683083 6.83098366,15.567665 C9.54018324,14.7763448 12.4189514,14.7763448 15.1276638,15.567665 C16.1533589,15.8678209 16.94273,16.6898389 17.2014684,17.7272284 L18.1852585,21.690651 C18.9468555,22.3494348 19.6144101,23.1095699 20.1684317,23.950104 L26.9463032,23.950104 L26.9463032,20.956341 C26.9463032,20.405243 27.3931262,19.95842 27.9442242,19.95842 L28.9421452,19.95842 L28.9421452,18.960499 C28.9421452,16.7561071 27.1548531,14.968815 24.9504612,14.968815 L23.9525402,14.968815 C20.6454651,14.968815 17.9650143,12.2878768 17.9650143,8.98128898 C17.9650143,5.67470121 20.6454651,2.99376299 23.9525402,2.99376299 L36.9255132,2.99376299 C38.5788072,2.99376299 39.9192762,1.65329389 39.9192762,5.68434189e-14 L41.9151182,5.68434189e-14 C41.9117074,2.7545153 39.6795413,4.9861941 36.9255132,4.98960499 L23.9525402,4.98960499 C21.7481484,4.98960499 19.9608563,6.77689709 19.9608563,8.98128898 C19.9608563,11.1856809 21.7481484,12.972973 23.9525402,12.972973 L24.9504612,12.972973 C28.2560746,12.9763839 30.9345765,15.6548857 30.9379872,18.960499 L30.9379872,19.95842 L31.9359082,19.95842 C32.4870062,19.95842 32.9338292,20.405243 32.9338292,20.956341 L32.9338292,23.950104 L39.7078028,23.950104 C40.2642606,23.096901 40.9357134,22.3245842 41.7036448,21.6550805 L42.6786642,17.7291775 C42.936428,16.6913007 43.7257991,15.8683083 44.7519816,15.567665 C47.4611812,14.7763448 50.3399494,14.7763448 53.0486617,15.567665 C54.0743568,15.8678209 54.8637279,16.6898389 55.1224663,17.7272284 L56.1252599,21.7656899 Z M44.6155471,18.206211 L44.1672622,20.0393062 C45.8887734,19.2124155 47.7969075,18.8498895 49.7016307,18.9882731 C51.077183,19.0867009 52.4196011,19.4540995 53.6533589,20.0690294 L53.1914306,18.2071856 C53.1046972,17.8578157 52.83865,17.5810486 52.4931782,17.4806718 C50.148941,16.796063 47.6580367,16.796063 45.3137994,17.4806718 C44.968815,17.5810486 44.7027677,17.8573285 44.6155471,18.206211 Z M28.9421452,21.954262 L28.9421452,23.950104 L30.9379872,23.950104 L30.9379872,21.954262 L28.9421452,21.954262 Z M6.69454915,18.206211 L6.2423662,20.0534369 C9.23856549,18.5892022 12.7439578,18.5965111 15.7338227,20.0734148 L15.2704327,18.2071856 C15.1836993,17.8578157 14.9176521,17.5810486 14.5721803,17.4806718 C12.2279431,16.796063 9.73703875,16.796063 7.39280146,17.4806718 C7.04781705,17.5810486 6.78176981,17.8573285 6.69454915,18.206211 Z M57.8818542,54.2648779 L57.8818542,30.2850506 C57.9617658,25.4835304 54.3330951,21.428989 49.5520401,20.9782679 C46.118763,20.7224532 42.8433602,22.4605315 41.1306198,25.4469854 C40.9527677,25.7554249 40.6238631,25.9454587 40.2676715,25.9459459 L19.610512,25.9459459 C19.2543205,25.9454587 18.9254158,25.7554249 18.7470763,25.4469854 C16.7171258,21.9260006 12.5743894,20.2083874 8.6484862,21.2608822 C4.72258316,22.3138643 1.99438017,25.8733433 1.9982783,29.9376299 L1.9982783,54.2678015 C1.99876565,55.839722 3.01471547,57.2308667 4.51159696,57.7098493 C6.00847846,58.1888319 7.64374353,57.6460174 8.55639293,56.3664566 L15.9608888,46.0013319 C16.1367918,45.7547752 16.4145336,45.6012863 16.7166385,45.5842321 C17.0192308,45.5632796 17.3145141,45.6850962 17.5147804,45.9131366 C18.8498895,47.4041711 20.8432952,48.1272738 22.8235447,47.8383251 C24.8042814,47.5498635 26.508251,46.2883316 27.3624286,44.478138 C27.5276118,44.1316917 27.8764942,43.910473 28.26046,43.9094984 L31.6264942,43.9094984 C32.0099727,43.910473 32.3588552,44.1307173 32.5245257,44.4761889 C33.3752924,46.2878444 35.0787747,47.5513254 37.0590242,47.8392997 C39.0392737,48.1267866 41.032192,47.4007602 42.3629158,45.906315 C42.5524623,45.6963032 42.8219204,45.5759486 43.1045349,45.5759486 L43.161545,45.5759486 C43.46365,45.5934901 43.7413916,45.7469789 43.9168074,45.9930484 L51.3266632,56.3606094 C52.2393126,57.6382211 53.8726286,58.180061 55.3680484,57.702053 C56.8634681,57.224045 57.8794179,55.8348493 57.8818542,54.2648779 Z M17.9650143,27.9417879 L17.9650143,31.9334719 C17.9650143,32.4845699 17.5181913,32.9313929 16.9670933,32.9313929 L13.9733303,32.9313929 L13.9733303,35.9251559 C13.9733303,36.4762539 13.5265073,36.9230769 12.9754093,36.9230769 L8.98372528,36.9230769 C8.43262728,36.9230769 7.98580428,36.4762539 7.98580428,35.9251559 L7.98580428,32.9313929 L4.99204129,32.9313929 C4.44094328,32.9313929 3.99412029,32.4845699 3.99412029,31.9334719 L3.99412029,27.9417879 C3.99412029,27.3906899 4.44094328,26.9438669 4.99204129,26.9438669 L7.98580428,26.9438669 L7.98580428,23.950104 C7.98580428,23.3990059 8.43262728,22.952183 8.98372528,22.952183 L12.9754093,22.952183 C13.5265073,22.952183 13.9733303,23.3990059 13.9733303,23.950104 L13.9733303,26.9438669 L16.9670933,26.9438669 C17.5181913,26.9438669 17.9650143,27.3906899 17.9650143,27.9417879 Z M15.9691723,30.9355509 L15.9691723,28.9397089 L12.9754093,28.9397089 C12.4243113,28.9397089 11.9774883,28.4928859 11.9774883,27.9417879 L11.9774883,24.9480249 L9.98164628,24.9480249 L9.98164628,27.9417879 C9.98164628,28.4928859 9.53482328,28.9397089 8.98372528,28.9397089 L5.98996229,28.9397089 L5.98996229,30.9355509 L8.98372528,30.9355509 C9.53482328,30.9355509 9.98164628,31.3823739 9.98164628,31.9334719 L9.98164628,34.9272349 L11.9774883,34.9272349 L11.9774883,31.9334719 C11.9774883,31.3823739 12.4243113,30.9355509 12.9754093,30.9355509 L15.9691723,30.9355509 Z M48.9005652,27.9417879 C47.2472713,27.9417879 45.9068022,26.6013188 45.9068022,24.9480249 C45.9068022,23.2947311 47.2472713,21.954262 48.9005652,21.954262 C50.5538592,21.954262 51.8943282,23.2947311 51.8943282,24.9480249 C51.8943282,26.6013188 50.5538592,27.9417879 48.9005652,27.9417879 Z M48.9005652,23.950104 C48.3494672,23.950104 47.9026442,24.3969269 47.9026442,24.9480249 C47.9026442,25.499123 48.3494672,25.9459459 48.9005652,25.9459459 C49.4516632,25.9459459 49.8984862,25.499123 49.8984862,24.9480249 C49.8984862,24.3969269 49.4516632,23.950104 48.9005652,23.950104 Z M46.9047232,29.9376299 C46.9047232,31.5909238 45.5642542,32.9313929 43.9109602,32.9313929 C42.2576663,32.9313929 40.9171972,31.5909238 40.9171972,29.9376299 C40.9171972,28.284336 42.2576663,26.9438669 43.9109602,26.9438669 C45.5642542,26.9438669 46.9047232,28.284336 46.9047232,29.9376299 Z M43.9109602,30.9355509 C44.4620582,30.9355509 44.9088812,30.4887279 44.9088812,29.9376299 C44.9088812,29.3865319 44.4620582,28.9397089 43.9109602,28.9397089 C43.3598622,28.9397089 42.9130392,29.3865319 42.9130392,29.9376299 C42.9130392,30.4887279 43.3598622,30.9355509 43.9109602,30.9355509 Z M48.9005652,31.9334719 C50.5538592,31.9334719 51.8943282,33.273941 51.8943282,34.9272349 C51.8943282,36.5805288 50.5538592,37.9209979 48.9005652,37.9209979 C47.2472713,37.9209979 45.9068022,36.5805288 45.9068022,34.9272349 C45.9068022,33.273941 47.2472713,31.9334719 48.9005652,31.9334719 Z M48.9005652,35.9251559 C49.4516632,35.9251559 49.8984862,35.4783329 49.8984862,34.9272349 C49.8984862,34.3761369 49.4516632,33.9293139 48.9005652,33.9293139 C48.3494672,33.9293139 47.9026442,34.3761369 47.9026442,34.9272349 C47.9026442,35.4783329 48.3494672,35.9251559 48.9005652,35.9251559 Z M50.8964072,29.9376299 C50.8964072,28.284336 52.2368763,26.9438669 53.8901702,26.9438669 C55.5434642,26.9438669 56.8839332,28.284336 56.8839332,29.9376299 C56.8839332,31.5909238 55.5434642,32.9313929 53.8901702,32.9313929 C52.2368763,32.9313929 50.8964072,31.5909238 50.8964072,29.9376299 Z M54.8880912,29.9376299 C54.8880912,29.3865319 54.4412682,28.9397089 53.8901702,28.9397089 C53.3390722,28.9397089 52.8922492,29.3865319 52.8922492,29.9376299 C52.8922492,30.4887279 53.3390722,30.9355509 53.8901702,30.9355509 C54.4412682,30.9355509 54.8880912,30.4887279 54.8880912,29.9376299 Z M21.9566983,37.9209979 C24.1610901,37.9209979 25.9483822,39.70829 25.9483822,41.9126819 C25.9483822,44.1170738 24.1610901,45.9043659 21.9566983,45.9043659 C19.7523064,45.9043659 17.9650143,44.1170738 17.9650143,41.9126819 C17.9650143,39.70829 19.7523064,37.9209979 21.9566983,37.9209979 Z M21.9566983,43.9085239 C23.0588943,43.9085239 23.9525402,43.0148779 23.9525402,41.9126819 C23.9525402,40.8104859 23.0588943,39.9168399 21.9566983,39.9168399 C20.8545024,39.9168399 19.9608563,40.8104859 19.9608563,41.9126819 C19.9608563,43.0148779 20.8545024,43.9085239 21.9566983,43.9085239 Z M37.9234342,37.9209979 C40.1278261,37.9209979 41.9151182,39.70829 41.9151182,41.9126819 C41.9151182,44.1170738 40.1278261,45.9043659 37.9234342,45.9043659 C35.7190423,45.9043659 33.9317502,44.1170738 33.9317502,41.9126819 C33.9317502,39.70829 35.7190423,37.9209979 37.9234342,37.9209979 Z M37.9234342,43.9085239 C39.0256302,43.9085239 39.9192762,43.0148779 39.9192762,41.9126819 C39.9192762,40.8104859 39.0256302,39.9168399 37.9234342,39.9168399 C36.8212383,39.9168399 35.9275922,40.8104859 35.9275922,41.9126819 C35.9275922,43.0148779 36.8212383,43.9085239 37.9234342,43.9085239 Z M34.9296712,31.9334719 L38.9213552,31.9334719 L38.9213552,33.9293139 L34.9296712,33.9293139 L34.9296712,31.9334719 Z M20.9587773,31.9334719 L24.9504612,31.9334719 L24.9504612,33.9293139 L20.9587773,33.9293139 L20.9587773,31.9334719 Z M27.9442242,36.9230769 L31.9359082,36.9230769 L31.9359082,38.9189189 L27.9442242,38.9189189 L27.9442242,36.9230769 Z" id="Combined-Shape" fill="#FF595A" fill-rule="nonzero"></path>
                    </g>
                </g>
            </g>
        </g>
    </g>
</svg>