<?xml version="1.0" encoding="UTF-8"?>
<svg width="48px" height="60px" viewBox="0 0 48 60" version="1.1" xmlns="http://www.w3.org/2000/svg" xmlns:xlink="http://www.w3.org/1999/xlink">
    <!-- Generator: Sketch 54 (76480) - https://sketchapp.com -->
    <title>Group 4</title>
    <desc>Created with Sketch.</desc>
    <g id="Main-Page" stroke="none" stroke-width="1" fill="none" fill-rule="evenodd">
        <g transform="translate(-661.000000, -1003.000000)" id="Projects">
            <g transform="translate(35.000000, 900.000000)">
                <g id="Mobile-App" transform="translate(444.000000, 103.000000)">
                    <g id="Group-4" transform="translate(182.000000, 0.000000)">
                        <rect id="Rectangle" fill="#FFFFFF" x="0" y="0" width="48" height="60"></rect>
                        <path d="M38.94373,23.2505997 L45.0739606,28.869353 C46.9304704,30.575693 47.9879065,32.9799107 47.9904051,35.5010661 L47.9904051,59.9680171 L45.9914712,59.9680171 L45.9914712,35.5010661 C45.9909715,33.5408616 45.1684101,31.6703591 43.7254298,30.3428172 L37.5959488,24.723814 L38.94373,23.2505997 Z M30.999467,4.97379915e-14 C33.7579957,0.00349813433 35.9933035,2.23880597 35.9968017,4.99733475 L35.9968017,34.567564 L42.7002265,41.2729877 L41.2869803,42.686234 L31.421242,32.8202459 C30.2348747,31.5831557 28.3086521,31.4344849 26.9466285,32.4756796 C26.2395056,33.0558702 25.8099847,33.9074161 25.7645089,34.8216784 C25.719283,35.7354411 26.0621002,36.6257163 26.7087553,37.273121 L33.705024,44.2693897 C34.0415945,44.6059602 34.0948161,45.1339286 33.8299574,45.530717 C31.3280417,49.2742204 29.9952525,53.6776219 30,58.1799707 L30,59.9680171 L5.01332623,59.9680171 C2.25479744,59.9645189 0.0194896375,57.7292111 0.0159914712,54.9706823 L0.0159914712,4.99733475 C0.0194896375,2.23880597 2.25479744,0.00349813433 5.01332623,4.97379915e-14 L30.999467,4.97379915e-14 Z M33.9978678,32.5686301 L33.9978678,7.99573561 L2.01492537,7.99573561 L2.01492537,49.9733475 L27.0015991,49.9733475 L27.0015991,51.9722814 L2.01492537,51.9722814 L2.01492537,54.9706823 C2.01492537,56.6262993 3.35770925,57.9690832 5.01332623,57.9690832 L28.0080624,57.9690832 C28.0400453,53.4240072 29.3253598,48.9753798 31.7220816,45.1131896 L25.2955091,38.6863673 C24.2500666,37.6404251 23.6953625,36.2019423 23.7673241,34.7252299 C23.8395356,33.2482676 24.5324161,31.8705024 25.674307,30.9320029 C27.8331557,29.2421542 30.917011,29.4462953 32.8344883,31.4052505 L33.9978678,32.5686301 Z M33.9978678,5.99680171 L33.9978678,4.99733475 C33.9978678,3.34171778 32.6550839,1.9989339 30.999467,1.9989339 L5.01332623,1.9989339 C3.35770925,1.9989339 2.01492537,3.34171778 2.01492537,4.99733475 L2.01492537,5.99680171 L33.9978678,5.99680171 Z M6.01279318,17.9904051 C4.90863205,17.9904051 4.01385928,17.0956323 4.01385928,15.9914712 L4.01385928,11.9936034 C4.01385928,10.8894423 4.90863205,9.99466951 6.01279318,9.99466951 L10.010661,9.99466951 C11.1148221,9.99466951 12.0095949,10.8894423 12.0095949,11.9936034 L12.0095949,15.9914712 C12.0095949,17.0956323 11.1148221,17.9904051 10.010661,17.9904051 L6.01279318,17.9904051 Z M6.01279318,11.9936034 L6.01279318,15.9914712 L10.010661,15.9914712 L10.010661,11.9936034 L6.01279318,11.9936034 Z M16.0074627,17.9904051 C14.9033016,17.9904051 14.0085288,17.0956323 14.0085288,15.9914712 L14.0085288,11.9936034 C14.0085288,10.8894423 14.9033016,9.99466951 16.0074627,9.99466951 L20.0053305,9.99466951 C21.1094916,9.99466951 22.0042644,10.8894423 22.0042644,11.9936034 L22.0042644,15.9914712 C22.0042644,17.0956323 21.1094916,17.9904051 20.0053305,17.9904051 L16.0074627,17.9904051 Z M16.0074627,11.9936034 L16.0074627,15.9914712 L20.0053305,15.9914712 L20.0053305,11.9936034 L16.0074627,11.9936034 Z M26.0021322,17.9904051 C24.8979711,17.9904051 24.0031983,17.0956323 24.0031983,15.9914712 L24.0031983,11.9936034 C24.0031983,10.8894423 24.8979711,9.99466951 26.0021322,9.99466951 L30,9.99466951 C31.1041611,9.99466951 31.9989339,10.8894423 31.9989339,11.9936034 L31.9989339,15.9914712 C31.9989339,17.0956323 31.1041611,17.9904051 30,17.9904051 L26.0021322,17.9904051 Z M26.0021322,11.9936034 L26.0021322,15.9914712 L30,15.9914712 L30,11.9936034 L26.0021322,11.9936034 Z M6.01279318,27.9850746 C4.90863205,27.9850746 4.01385928,27.0903019 4.01385928,25.9861407 L4.01385928,21.9882729 C4.01385928,20.8841118 4.90863205,19.989339 6.01279318,19.989339 L10.010661,19.989339 C11.1148221,19.989339 12.0095949,20.8841118 12.0095949,21.9882729 L12.0095949,25.9861407 C12.0095949,27.0903019 11.1148221,27.9850746 10.010661,27.9850746 L6.01279318,27.9850746 Z M6.01279318,21.9882729 L6.01279318,25.9861407 L10.010661,25.9861407 L10.010661,21.9882729 L6.01279318,21.9882729 Z M6.01279318,37.9797441 C4.90863205,37.9797441 4.01385928,37.0849714 4.01385928,35.9808102 L4.01385928,31.9829424 C4.01385928,30.8787813 4.90863205,29.9840085 6.01279318,29.9840085 L10.010661,29.9840085 C11.1148221,29.9840085 12.0095949,30.8787813 12.0095949,31.9829424 L12.0095949,35.9808102 C12.0095949,37.0849714 11.1148221,37.9797441 10.010661,37.9797441 L6.01279318,37.9797441 Z M6.01279318,31.9829424 L6.01279318,35.9808102 L10.010661,35.9808102 L10.010661,31.9829424 L6.01279318,31.9829424 Z M16.0074627,27.9850746 C14.9033016,27.9850746 14.0085288,27.0903019 14.0085288,25.9861407 L14.0085288,21.9882729 C14.0085288,20.8841118 14.9033016,19.989339 16.0074627,19.989339 L20.0053305,19.989339 C21.1094916,19.989339 22.0042644,20.8841118 22.0042644,21.9882729 L22.0042644,25.9861407 C22.0042644,27.0903019 21.1094916,27.9850746 20.0053305,27.9850746 L16.0074627,27.9850746 Z M16.0074627,21.9882729 L16.0074627,25.9861407 L20.0053305,25.9861407 L20.0053305,21.9882729 L16.0074627,21.9882729 Z M26.0021322,27.9850746 C24.8979711,27.9850746 24.0031983,27.0903019 24.0031983,25.9861407 L24.0031983,21.9882729 C24.0031983,20.8841118 24.8979711,19.989339 26.0021322,19.989339 L30,19.989339 C31.1041611,19.989339 31.9989339,20.8841118 31.9989339,21.9882729 L31.9989339,25.9861407 C31.9989339,27.0903019 31.1041611,27.9850746 30,27.9850746 L26.0021322,27.9850746 Z M26.0021322,21.9882729 L26.0021322,25.9861407 L30,25.9861407 L30,21.9882729 L26.0021322,21.9882729 Z M16.0074627,37.9797441 C14.9033016,37.9797441 14.0085288,37.0849714 14.0085288,35.9808102 L14.0085288,31.9829424 C14.0085288,30.8787813 14.9033016,29.9840085 16.0074627,29.9840085 L20.0053305,29.9840085 C21.1094916,29.9840085 22.0042644,30.8787813 22.0042644,31.9829424 L22.0042644,35.9808102 C22.0042644,37.0849714 21.1094916,37.9797441 20.0053305,37.9797441 L16.0074627,37.9797441 Z M16.0074627,31.9829424 L16.0074627,35.9808102 L20.0053305,35.9808102 L20.0053305,31.9829424 L16.0074627,31.9829424 Z M6.01279318,47.9744136 C4.90863205,47.9744136 4.01385928,47.0796409 4.01385928,45.9754797 L4.01385928,41.9776119 C4.01385928,40.8734508 4.90863205,39.978678 6.01279318,39.978678 L10.010661,39.978678 C11.1148221,39.978678 12.0095949,40.8734508 12.0095949,41.9776119 L12.0095949,45.9754797 C12.0095949,47.0796409 11.1148221,47.9744136 10.010661,47.9744136 L6.01279318,47.9744136 Z M6.01279318,41.9776119 L6.01279318,45.9754797 L10.010661,45.9754797 L10.010661,41.9776119 L6.01279318,41.9776119 Z M16.0074627,47.9744136 C14.9033016,47.9744136 14.0085288,47.0796409 14.0085288,45.9754797 L14.0085288,41.9776119 C14.0085288,40.8734508 14.9033016,39.978678 16.0074627,39.978678 L20.0053305,39.978678 C21.1094916,39.978678 22.0042644,40.8734508 22.0042644,41.9776119 L22.0042644,45.9754797 C22.0042644,47.0796409 21.1094916,47.9744136 20.0053305,47.9744136 L16.0074627,47.9744136 Z M16.0074627,41.9776119 L16.0074627,45.9754797 L20.0053305,45.9754797 L20.0053305,41.9776119 L16.0074627,41.9776119 Z M17.0069296,53.9712154 L19.0058635,53.9712154 L19.0058635,55.9701493 L17.0069296,55.9701493 L17.0069296,53.9712154 Z" id="Combined-Shape" fill="#FF595A" fill-rule="nonzero"></path>
                    </g>
                </g>
            </g>
        </g>
    </g>
</svg>