<?xml version="1.0" encoding="UTF-8"?>
<svg width="393px" height="117px" viewBox="0 0 393 117" version="1.1" xmlns="http://www.w3.org/2000/svg" xmlns:xlink="http://www.w3.org/1999/xlink">
    <!-- Generator: sketchtool 53.2 (72643) - https://sketchapp.com -->
    <title>E26D4AD9-C1E0-48A8-834B-919F7291FE59</title>
    <desc>Created with sketchtool.</desc>
    <g id="Main-Page" stroke="none" stroke-width="1" fill="none" fill-rule="evenodd">
        <g transform="translate(-487.000000, -365.000000)" fill-rule="nonzero" id="Main">
            <g>
                <g id="tokrit-logo" transform="translate(487.000000, 365.000000)">
                    <rect id="Rectangle" fill="#FF595A" x="275.12" y="0" width="117" height="117" rx="10"></rect>
                    <path d="M33.4,8.9 L11.7,8.9 L11.7,32.29 L0,32.29 L0,47.91 L11.7,47.91 L11.7,99.55 C11.7,104.783333 12.93,108.656667 15.39,111.17 C19.19,115.116667 26.27,116.91 36.63,116.55 L47,116.17 L47,99.78 C46.28,99.78 45.55,99.87 44.8,99.89 C44.05,99.91 43.35,99.89 42.69,99.89 C38.22,99.89 35.56,99.47 34.69,98.62 C33.82,97.77 33.39,95.62 33.39,92.2 L33.39,47.91 L47,47.91 L47,32.29 L33.4,32.29 L33.4,8.9 Z" id="Path" fill="#FF595A"></path>
                    <polygon id="Path" fill="#FF595A" points="217.85 31.91 190.58 31.91 162.92 63.55 162.92 2.36 141.37 2.36 141.37 115.4 162.92 115.4 162.92 89 172 79.56 192.32 115.4 219.01 115.4 187.78 63.15"></polygon>
                    <path d="M266.92,29.52 C260.35,29.52 254.79,30.32 249.4,33.52 C246.16,35.67 246.16,35.67 242.07,39.63 L242.07,31.52 L221.14,31.52 L221.14,115.4 L243.22,115.4 L243.22,75.31 C243.22,68.59 244.066667,63.6133333 245.76,60.38 C248.793333,54.6333333 254.72,51.76 263.54,51.76 C264.2,51.76 265.08,51.76 266.15,51.84 C267.22,51.92 268.46,51.99 269.85,52.15 L269.85,29.68 C268.87,29.6266667 268.24,29.5866667 267.96,29.56 C267.68,29.54 267.33,29.52 266.92,29.52 Z" id="Path" fill="#FF595A"></path>
                    <path d="M91.31,29.24 C73.6282276,29.23191 57.6832056,39.8774609 50.9120121,56.2113545 C44.1408185,72.5452481 47.8773555,91.3497628 60.3788272,103.854096 C72.8802989,116.358429 91.6839579,120.099269 108.019401,113.331814 C124.354844,106.564359 135.004043,90.6217738 135,72.94 C134.994482,48.8113469 115.438651,29.2510397 91.31,29.24 Z M91.31,95.06 C79.0934613,95.06 69.19,85.1565387 69.19,72.94 C69.19,60.7234613 79.0934613,50.82 91.31,50.82 C103.526539,50.82 113.43,60.7234613 113.43,72.94 C113.43,78.8065888 111.099507,84.4328973 106.951202,88.581202 C102.802897,92.7295067 97.1765888,95.06 91.31,95.06 L91.31,95.06 Z" id="Shape" fill="#FF595A"></path>
                    <rect id="Rectangle" fill="#FFFFFF" x="302.73" y="6.9" width="20.07" height="18.26"></rect>
                    <path d="M369.12,49 L370.51,49 L370.51,34 L357.22,34 L357.22,13.78 L337.64,13.78 L337.64,34 L302.73,34 L302.73,49 L302.73,49 L302.73,109.89 L322.8,109.89 L322.8,49 L337.64,49 L337.64,95.59 C337.64,100.31 338.75,103.803333 340.97,106.07 C344.396667,109.643333 350.786667,111.263333 360.14,110.93 L369.51,110.59 L369.51,89.8 C368.86,89.8 368.2,89.88 367.51,89.9 L365.6,89.9 C361.6,89.9 359.193333,89.52 358.38,88.76 C357.59,88 357.2,86.06 357.2,82.96 L357.2,49 L369.12,49 Z" id="Path" fill="#FFFFFF"></path>
                </g>
            </g>
        </g>
    </g>
</svg>