<?xml version="1.0" encoding="UTF-8"?>
<svg width="67px" height="60px" viewBox="0 0 67 60" version="1.1" xmlns="http://www.w3.org/2000/svg" xmlns:xlink="http://www.w3.org/1999/xlink">
    <!-- Generator: Sketch 54 (76480) - https://sketchapp.com -->
    <title>Group 3</title>
    <desc>Created with Sketch.</desc>
    <g id="Main-Page" stroke="none" stroke-width="1" fill="none" fill-rule="evenodd">
        <g transform="translate(-207.000000, -1003.000000)" id="Projects">
            <g transform="translate(35.000000, 900.000000)">
                <g id="Website" transform="translate(0.000000, 103.000000)">
                    <g id="Group-3" transform="translate(172.000000, 0.000000)">
                        <rect id="Rectangle" fill="#FFFFFF" x="0" y="0" width="67" height="60"></rect>
                        <path d="M65.1408451,0.0704225352 C65.7242254,0.0704225352 66.1971831,0.543239437 66.1971831,1.12676056 L66.1971831,43.3802817 C66.1971831,43.9638028 65.7242254,44.4366197 65.1408451,44.4366197 C64.5574648,44.4366197 64.084507,43.9638028 64.084507,43.3802817 L64.084507,10.6338028 L2.11267606,10.6338028 L2.11267606,57.8169014 L64.084507,57.8169014 L64.084507,47.6056338 C64.084507,47.0221127 64.5574648,46.5492958 65.1408451,46.5492958 C65.7242254,46.5492958 66.1971831,47.0221127 66.1971831,47.6056338 L66.1971831,58.8732394 C66.1971831,59.4567606 65.7242254,59.9295775 65.1408451,59.9295775 L1.05633803,59.9295775 C0.472957746,59.9295775 -5.68434189e-14,59.4567606 -5.68434189e-14,58.8732394 L-5.68434189e-14,1.12676056 C-5.68434189e-14,0.543239437 0.472957746,0.0704225352 1.05633803,0.0704225352 L65.1408451,0.0704225352 Z M2.11267606,2.18309859 L2.11267606,8.52112676 L41.1971831,8.52112676 L41.1971831,2.18309859 L2.11267606,2.18309859 Z M43.3098592,8.52112676 L64.084507,8.52112676 L64.084507,2.18309859 L43.3098592,2.18309859 L43.3098592,8.52112676 Z M53.7323944,4.22535211 C54.353662,4.22535211 54.8591549,4.73084507 54.8591549,5.35211268 C54.8591549,5.97338028 54.353662,6.47887324 53.7323944,6.47887324 C53.1111268,6.47887324 52.6056338,5.97338028 52.6056338,5.35211268 C52.6056338,4.73084507 53.1111268,4.22535211 53.7323944,4.22535211 Z M47.9577465,4.22535211 C48.5790141,4.22535211 49.084507,4.73084507 49.084507,5.35211268 C49.084507,5.97338028 48.5790141,6.47887324 47.9577465,6.47887324 C47.3364789,6.47887324 46.8309859,5.97338028 46.8309859,5.35211268 C46.8309859,4.73084507 47.3364789,4.22535211 47.9577465,4.22535211 Z M59.5070423,4.22535211 C60.1283099,4.22535211 60.6338028,4.73084507 60.6338028,5.35211268 C60.6338028,5.97338028 60.1283099,6.47887324 59.5070423,6.47887324 C58.8857746,6.47887324 58.3802817,5.97338028 58.3802817,5.35211268 C58.3802817,4.73084507 58.8857746,4.22535211 59.5070423,4.22535211 Z M20.9456338,28.7308451 C20.5307042,28.7830986 20.123662,28.584507 19.908169,28.225493 L17.9035211,24.8795775 L15.8988732,28.225493 C15.7064789,28.5466197 15.3608451,28.7390141 14.9929577,28.7390141 C14.9494366,28.7390141 14.9056338,28.736338 14.8616901,28.7308451 C14.4464789,28.6788732 14.1009859,28.3867606 13.9808451,27.9857746 L11.5511268,19.8750704 C11.383662,19.3161972 11.7009859,18.7273239 12.2598592,18.56 C12.8187324,18.3925352 13.4076056,18.7098592 13.5749296,19.2687324 L15.3174648,25.0853521 L16.9974648,22.2814085 C17.1883099,21.9628169 17.5322535,21.7678873 17.903662,21.7678873 C18.2750704,21.7678873 18.6190141,21.9628169 18.8098592,22.2814085 L20.4898592,25.0853521 L22.2326761,19.2676056 C22.4001408,18.7087324 22.9891549,18.3915493 23.5477465,18.5588732 C24.1066197,18.726338 24.4238028,19.3150704 24.2564789,19.8739437 L21.8264789,27.9857746 C21.7064789,28.3867606 21.3609859,28.6788732 20.9456338,28.7308451 Z M29.064507,28.7298592 C28.6492958,28.6778873 28.3038028,28.3857746 28.183662,27.9849296 L25.7539437,19.8740845 C25.5864789,19.3152113 25.9038028,18.726338 26.4626761,18.5590141 C27.021831,18.3914085 27.6104225,18.7088732 27.7777465,19.2677465 L29.5202817,25.084507 L31.2,22.2805634 C31.3908451,21.9619718 31.7347887,21.7670423 32.1061972,21.7670423 C32.4776056,21.7670423 32.8215493,21.9619718 33.0123944,22.2805634 L34.6923944,25.084507 L36.4352113,19.2666197 C36.6026761,18.7076056 37.1914085,18.3904225 37.7502817,18.5578873 C38.3091549,18.7253521 38.626338,19.3140845 38.4590141,19.8729577 L36.0290141,27.9847887 C35.9090141,28.3857746 35.5635211,28.6778873 35.148169,28.7298592 C34.7329577,28.781831 34.3260563,28.5835211 34.1109859,28.224507 L32.106338,24.8785915 L30.1016901,28.224507 C29.9092958,28.5456338 29.563662,28.7380282 29.1957746,28.7380282 C29.1522535,28.7380282 29.1084507,28.7353521 29.064507,28.7298592 Z M51.9528169,18.5570423 C52.5116901,18.7243662 52.8288732,19.3132394 52.6612676,19.8721127 L50.2312676,27.9838028 C50.1112676,28.3847887 49.7657746,28.6769014 49.3504225,28.7288732 C49.3066197,28.7343662 49.2626761,28.7370423 49.2191549,28.7370423 C48.8511268,28.7370423 48.5056338,28.544507 48.3132394,28.2235211 L46.3085915,24.8776056 L44.3039437,28.2235211 C44.0887324,28.5826761 43.6821127,28.7808451 43.2667606,28.7288732 C42.8515493,28.6769014 42.5060563,28.3847887 42.3859155,27.9838028 L39.9561972,19.8730986 C39.7887324,19.3142254 40.1060563,18.7253521 40.6649296,18.5580282 C41.2240845,18.3907042 41.8125352,18.7080282 41.98,19.2667606 L43.7225352,25.0833803 L45.4025352,22.2794366 C45.5933803,21.9608451 45.9373239,21.7659155 46.3087324,21.7659155 C46.6801408,21.7659155 47.0240845,21.9608451 47.2149296,22.2794366 L48.8949296,25.0833803 L50.6377465,19.2657746 C50.8052113,18.7069014 51.3940845,18.3897183 51.9528169,18.5570423 Z M19.2535211,34.7249296 L19.2535211,40.3587324 C19.2535211,40.9422535 18.7805634,41.4150704 18.1971831,41.4150704 L12.5633803,41.4150704 C11.98,41.4150704 11.5070423,40.9422535 11.5070423,40.3587324 L11.5070423,34.7249296 C11.5070423,34.1414085 11.98,33.6685915 12.5633803,33.6685915 L18.1971831,33.6685915 C18.7805634,33.6685915 19.2535211,34.1414085 19.2535211,34.7249296 Z M17.1408451,39.3023944 L17.1408451,35.7812676 L13.6197183,35.7812676 L13.6197183,39.3023944 L17.1408451,39.3023944 Z M18.1971831,43.5277465 C18.7805634,43.5277465 19.2535211,44.0005634 19.2535211,44.5840845 L19.2535211,50.2178873 C19.2535211,50.8014085 18.7805634,51.2742254 18.1971831,51.2742254 L12.5633803,51.2742254 C11.98,51.2742254 11.5070423,50.8014085 11.5070423,50.2178873 L11.5070423,44.5840845 C11.5070423,44.0005634 11.98,43.5277465 12.5633803,43.5277465 L18.1971831,43.5277465 Z M17.1408451,49.1615493 L17.1408451,45.6404225 L13.6197183,45.6404225 L13.6197183,49.1615493 L17.1408451,49.1615493 Z M51.6495775,36.485493 C52.2329577,36.485493 52.7059155,36.9583099 52.7059155,37.541831 C52.7059155,38.1253521 52.2329577,38.598169 51.6495775,38.598169 L47.4242254,38.598169 C46.8408451,38.598169 46.3678873,38.1253521 46.3678873,37.541831 C46.3678873,36.9583099 46.8408451,36.485493 47.4242254,36.485493 L51.6495775,36.485493 Z M43.1988732,36.485493 C43.7822535,36.485493 44.2553521,36.9583099 44.2553521,37.541831 C44.2553521,38.1253521 43.7823944,38.598169 43.1990141,38.598169 L22.4225352,38.598169 C21.8391549,38.598169 21.3661972,38.1253521 21.3661972,37.541831 C21.3661972,36.9583099 21.8391549,36.485493 22.4225352,36.485493 L43.1988732,36.485493 Z M51.6495775,46.3446479 C52.2329577,46.3446479 52.7059155,46.8174648 52.7059155,47.4009859 C52.7059155,47.984507 52.2329577,48.4573239 51.6495775,48.4573239 L47.4242254,48.4573239 C46.8408451,48.4573239 46.3678873,47.984507 46.3678873,47.4009859 C46.3678873,46.8174648 46.8408451,46.3446479 47.4242254,46.3446479 L51.6495775,46.3446479 Z M43.1988732,46.3446479 C43.7822535,46.3446479 44.2553521,46.8174648 44.2553521,47.4009859 C44.2553521,47.984507 43.7823944,48.4573239 43.1990141,48.4573239 L22.4225352,48.4573239 C21.8391549,48.4573239 21.3661972,47.984507 21.3661972,47.4009859 C21.3661972,46.8174648 21.8391549,46.3446479 22.4225352,46.3446479 L43.1988732,46.3446479 Z" id="Combined-Shape" fill="#FF595A" fill-rule="nonzero"></path>
                    </g>
                </g>
            </g>
        </g>
    </g>
</svg>