<?xml version="1.0" encoding="UTF-8"?>
<svg width="144px" height="144px" viewBox="0 0 144 144" version="1.1" xmlns="http://www.w3.org/2000/svg" xmlns:xlink="http://www.w3.org/1999/xlink">
    <!-- Generator: sketchtool 54.1 (76490) - https://sketchapp.com -->
    <title>90873845-26BF-46A3-8634-11BF3F61D2A9</title>
    <desc>Created with sketchtool.</desc>
    <g id="Page-1" stroke="none" stroke-width="1" fill="none" fill-rule="evenodd">
        <g id="About-us" transform="translate(-938.000000, -1206.000000)" fill="#000000" fill-rule="nonzero">
            <g id="Back-end" transform="translate(910.000000, 1178.000000)">
                <g id="Back-end_icon" transform="translate(28.000000, 28.000000)">
                    <path d="M52.8685714,60.0685714 C56.7771429,60.0685714 60.0685714,56.88 60.0685714,52.8685714 C60.0685714,48.8571429 56.88,45.6685714 52.8685714,45.6685714 C48.8571429,45.6685714 45.6685714,48.8571429 45.6685714,52.8685714 C45.6685714,56.88 48.96,60.0685714 52.8685714,60.0685714 Z M52.8685714,50.5028571 C54.2057143,50.5028571 55.2342857,51.5314286 55.2342857,52.8685714 C55.2342857,54.2057143 54.2057143,55.2342857 52.8685714,55.2342857 C51.5314286,55.2342857 50.5028571,54.2057143 50.5028571,52.8685714 C50.5028571,51.6342857 51.6342857,50.5028571 52.8685714,50.5028571 Z" id="Shape"></path>
                    <path d="M140.811429,0 L2.36571429,0 C1.02857143,0 0,1.02857143 0,2.36571429 L0,102.548571 C0,103.885714 1.02857143,104.914286 2.36571429,104.914286 L62.0228571,104.914286 L62.0228571,128.777143 L33.4285714,128.777143 C26.8457143,128.777143 21.4971429,134.125714 21.4971429,140.708571 C21.4971429,142.045714 22.5257143,143.074286 23.8628571,143.074286 L119.314286,143.074286 C120.651429,143.074286 121.68,142.045714 121.68,140.708571 C121.68,134.125714 116.331429,128.777143 109.748571,128.777143 L81.1542857,128.777143 L81.1542857,104.914286 L102.651429,104.914286 L140.811429,104.914286 C142.148571,104.914286 143.177143,103.885714 143.177143,102.548571 L143.177143,73.9542857 L143.177143,35.7942857 L143.177143,2.36571429 C143.177143,1.13142857 142.045714,0 140.811429,0 Z M95.4514286,63.4628571 L95.4514286,59.6571429 L95.4514286,54.9257143 L102.651429,54.9257143 C103.988571,54.9257143 105.017143,53.8971429 105.017143,52.56 L105.017143,45.36 L105.017143,38.16 L109.748571,38.16 L109.748571,47.7257143 L114.48,47.7257143 L114.48,38.16 L119.211429,38.16 L119.211429,47.7257143 L123.942857,47.7257143 L123.942857,38.16 L128.674286,38.16 L128.674286,47.7257143 L133.405714,47.7257143 L133.405714,38.16 L138.137143,38.16 L138.137143,71.5885714 L103.371429,71.5885714 L95.4514286,63.4628571 Z M67.1657143,88.7657143 C64.8,89.4857143 64.3885714,89.6914286 62.0228571,90.4114286 L58.6285714,84.8571429 C58.2171429,84.1371429 57.3942857,83.7257143 56.5714286,83.7257143 L48.5485714,83.7257143 C47.7257143,83.7257143 46.9028571,84.1371429 46.4914286,84.8571429 L43.0971429,90.4114286 C40.7314286,89.6914286 40.32,89.4857143 37.9542857,88.7657143 L38.4685714,82.2857143 C38.5714286,81.4628571 38.16,80.64 37.44,80.1257143 L34.9714286,78.2742857 C33.7371429,77.3485714 32.8114286,76.7314286 30.96,75.3942857 C30.24,74.88 29.4171429,74.7771429 28.5942857,75.0857143 L22.5257143,77.6571429 L19.3371429,73.2342857 L23.6571429,68.2971429 C24.1714286,67.68 24.3771429,66.7542857 24.0685714,66.0342857 L21.6,58.32 C21.2914286,57.4971429 20.6742857,56.9828571 19.8514286,56.7771429 L13.4742857,55.2342857 L13.4742857,49.8857143 L19.8514286,48.3428571 C20.6742857,48.1371429 21.2914286,47.52 21.6,46.8 L24.0685714,39.1885714 C24.3771429,38.3657143 24.1714286,37.5428571 23.6571429,36.9257143 L19.3371429,31.9885714 L22.5257143,27.5657143 L28.5942857,30.1371429 C29.3142857,30.4457143 30.24,30.3428571 30.96,29.8285714 C32.8114286,28.4914286 33.7371429,27.7714286 34.9714286,26.9485714 L37.44,25.0971429 C38.16,24.5828571 38.4685714,23.76 38.4685714,22.9371429 L37.9542857,16.4571429 C40.32,15.7371429 40.7314286,15.5314286 43.0971429,14.8114286 L46.4914286,20.3657143 C46.9028571,21.0857143 47.7257143,21.4971429 48.5485714,21.4971429 L56.5714286,21.4971429 C57.3942857,21.4971429 58.2171429,21.0857143 58.6285714,20.3657143 L62.0228571,14.8114286 C64.3885714,15.5314286 64.8,15.7371429 67.1657143,16.4571429 L66.6514286,22.9371429 C66.5485714,23.76 66.96,24.5828571 67.68,25.0971429 L70.1485714,26.9485714 C71.3828571,27.8742857 72.3085714,28.4914286 74.16,29.8285714 C74.88,30.3428571 75.7028571,30.4457143 76.5257143,30.1371429 L82.5942857,27.5657143 L85.7828571,31.9885714 L81.4628571,36.9257143 C80.9485714,37.5428571 80.7428571,38.4685714 81.0514286,39.1885714 C81.1542857,39.3942857 81.1542857,39.4971429 81.2571429,39.7028571 L68.5028571,26.9485714 C68.0914286,26.5371429 67.4742857,26.2285714 66.8571429,26.2285714 L52.4571429,26.2285714 C51.84,26.2285714 51.2228571,26.4342857 50.8114286,26.9485714 L41.2457143,36.5142857 C40.5257143,37.2342857 40.32,38.2628571 40.7314286,39.0857143 C41.1428571,39.9085714 41.9657143,40.5257143 42.8914286,40.5257143 L58.6285714,40.5257143 L64.3885714,46.2857143 L64.3885714,58.6285714 L58.6285714,64.3885714 L42.9942857,64.3885714 C42.0685714,64.3885714 41.1428571,65.0057143 40.8342857,65.8285714 C40.4228571,66.7542857 40.6285714,67.7828571 41.3485714,68.4 L50.9142857,77.9657143 C51.3257143,78.3771429 51.9428571,78.6857143 52.56,78.6857143 L66.8571429,78.6857143 C67.4742857,78.6857143 68.0914286,78.48 68.5028571,77.9657143 L81.0514286,65.4171429 L80.8457143,65.9314286 C80.5371429,66.7542857 80.7428571,67.5771429 81.2571429,68.1942857 L85.5771429,73.1314286 L82.3885714,77.5542857 L76.32,74.9828571 C75.6,74.6742857 74.6742857,74.7771429 73.9542857,75.2914286 C72.1028571,76.6285714 71.1771429,77.3485714 69.9428571,78.1714286 L67.4742857,80.0228571 C66.7542857,80.5371429 66.4457143,81.36 66.4457143,82.1828571 L67.1657143,88.7657143 Z M85.4742857,57.2914286 L83.52,57.2914286 C82.9028571,57.2914286 82.2857143,57.4971429 81.8742857,58.0114286 L65.8285714,73.9542857 L53.4857143,73.9542857 L48.7542857,69.2228571 L59.6571429,69.2228571 C60.2742857,69.2228571 60.8914286,69.0171429 61.3028571,68.5028571 L68.5028571,61.3028571 C68.9142857,60.8914286 69.2228571,60.2742857 69.2228571,59.6571429 L69.2228571,45.36 C69.2228571,44.7428571 69.0171429,44.1257143 68.5028571,43.7142857 L61.3028571,36.5142857 C60.8914286,36.1028571 60.2742857,35.7942857 59.6571429,35.7942857 L48.7542857,35.7942857 L53.4857143,31.0628571 L65.8285714,31.0628571 L81.8742857,47.0057143 C82.2857143,47.4171429 82.9028571,47.7257143 83.52,47.7257143 L85.4742857,47.7257143 L100.182857,47.7257143 L100.182857,50.0914286 L92.9828571,50.0914286 C91.6457143,50.0914286 90.6171429,51.12 90.6171429,52.4571429 L90.6171429,57.1885714 L85.4742857,57.1885714 L85.4742857,57.2914286 Z M4.83428571,4.83428571 L138.445714,4.83428571 L138.445714,33.4285714 L102.651429,33.4285714 C101.314286,33.4285714 100.285714,34.4571429 100.285714,35.7942857 L100.285714,42.9942857 L87.2228571,42.9942857 C86.7085714,41.5542857 86.4,40.5257143 85.8857143,38.88 L90.5142857,33.4285714 C91.2342857,32.6057143 91.2342857,31.3714286 90.6171429,30.4457143 L85.1657143,23.04 C84.5485714,22.1142857 83.3142857,21.8057143 82.2857143,22.2171429 L75.7028571,24.9942857 C74.5714286,24.1714286 73.7485714,23.5542857 72.72,22.8342857 L71.28,21.8057143 L71.8971429,14.7085714 C72,13.5771429 71.1771429,12.5485714 70.1485714,12.24 C66.1371429,10.9028571 66.1371429,10.9028571 63.1542857,9.97714286 L61.6114286,9.46285714 C60.5828571,9.15428571 59.4514286,9.56571429 58.8342857,10.4914286 L55.1314286,16.56 L49.7828571,16.56 L46.08,10.4914286 C45.4628571,9.56571429 44.3314286,9.15428571 43.3028571,9.46285714 L41.76,9.97714286 C38.7771429,11.0057143 38.7771429,11.0057143 34.6628571,12.24 C33.6342857,12.5485714 32.9142857,13.5771429 33.0171429,14.7085714 L33.6342857,21.8057143 L32.1942857,22.8342857 C31.2685714,23.5542857 30.4457143,24.0685714 29.2114286,24.9942857 L22.6285714,22.2171429 C21.6,21.8057143 20.4685714,22.1142857 19.7485714,23.04 L14.4,30.4457143 C13.7828571,31.3714286 13.7828571,32.6057143 14.5028571,33.4285714 L19.1314286,38.88 L17.4857143,44.0228571 L10.5942857,45.6685714 C9.56571429,45.9771429 8.74285714,46.9028571 8.74285714,48.0342857 L8.74285714,57.1885714 C8.74285714,58.32 9.46285714,59.2457143 10.5942857,59.5542857 L17.4857143,61.2 L19.1314286,66.3428571 L14.5028571,71.5885714 C13.8857143,72.3085714 13.7828571,73.1314286 14.0914286,73.9542857 L9.56571429,73.9542857 L9.56571429,78.7885714 L14.2971429,78.7885714 L14.2971429,74.4685714 C14.2971429,74.4685714 14.2971429,74.5714286 14.4,74.5714286 L19.8514286,81.9771429 C20.4685714,82.9028571 21.7028571,83.2114286 22.7314286,82.8 L29.3142857,80.0228571 C30.4457143,80.8457143 31.2685714,81.4628571 32.2971429,82.1828571 L33.7371429,83.2114286 L33.12,90.3085714 C33.0171429,91.44 33.84,92.4685714 34.8685714,92.7771429 C38.88,94.1142857 38.88,94.1142857 41.8628571,95.04 L43.4057143,95.5542857 C44.4342857,95.8628571 45.5657143,95.4514286 46.1828571,94.5257143 L49.8857143,88.4571429 L55.2342857,88.4571429 L58.9371429,94.5257143 C59.3485714,95.2457143 60.1714286,95.6571429 60.9942857,95.6571429 C61.2,95.6571429 61.5085714,95.6571429 61.7142857,95.5542857 L63.2571429,95.04 C66.24,94.0114286 66.24,94.0114286 70.3542857,92.7771429 C71.3828571,92.4685714 72.1028571,91.44 72,90.3085714 L71.3828571,83.2114286 L72.8228571,82.1828571 C73.7485714,81.4628571 74.5714286,80.9485714 75.8057143,80.0228571 L82.3885714,82.8 C83.4171429,83.2114286 84.5485714,82.9028571 85.2685714,81.9771429 L90.72,74.5714286 C91.3371429,73.6457143 91.3371429,72.4114286 90.6171429,71.5885714 L85.9885714,66.1371429 L86.1942857,65.52 C86.6057143,64.1828571 86.9142857,63.2571429 87.3257143,61.92 L90.8228571,61.92 L90.8228571,64.3885714 C90.8228571,65.0057143 91.0285714,65.6228571 91.5428571,66.0342857 L100.388571,74.88 L100.388571,100.182857 L78.7885714,100.182857 L64.3885714,100.182857 L4.73142857,100.182857 L4.73142857,4.83428571 L4.83428571,4.83428571 Z M116.537143,138.342857 L26.64,138.342857 C27.6685714,135.565714 30.24,133.611429 33.4285714,133.611429 L64.3885714,133.611429 L78.7885714,133.611429 L109.851429,133.611429 C112.834286,133.611429 115.508571,135.565714 116.537143,138.342857 Z M76.32,128.88 L66.7542857,128.88 L66.7542857,105.017143 L76.32,105.017143 L76.32,128.88 Z M138.342857,100.182857 L104.914286,100.182857 L104.914286,76.32 L138.342857,76.32 L138.342857,100.182857 Z"></path>
                    <path d="M129.291429,19.5428571 L134.022857,19.5428571 L134.022857,12.3428571 C134.022857,11.0057143 132.994286,9.97714286 131.657143,9.97714286 L114.994286,9.97714286 L114.994286,14.7085714 L129.291429,14.7085714 L129.291429,19.5428571 Z" id="Path"></path>
                    <rect id="Rectangle" x="129.291429" y="24.2742857" width="4.73142857" height="4.73142857"></rect>
                    <path d="M14.7085714,83.9314286 L9.97714286,83.9314286 L9.97714286,93.4971429 C9.97714286,94.8342857 11.0057143,95.8628571 12.3428571,95.8628571 L21.9085714,95.8628571 L21.9085714,91.1314286 L14.7085714,91.1314286 L14.7085714,83.9314286 Z" id="Path"></path>
                </g>
            </g>
        </g>
    </g>
</svg>