<?xml version="1.0" encoding="UTF-8"?>
<svg width="144px" height="144px" viewBox="0 0 144 144" version="1.1" xmlns="http://www.w3.org/2000/svg" xmlns:xlink="http://www.w3.org/1999/xlink">
    <!-- Generator: sketchtool 54.1 (76490) - https://sketchapp.com -->
    <title>51FDCC77-672F-4248-87F7-7F17ABD171A4</title>
    <desc>Created with sketchtool.</desc>
    <g id="Page-1" stroke="none" stroke-width="1" fill="none" fill-rule="evenodd">
        <g id="About-us" transform="translate(-284.000000, -1206.000000)" fill="#000000" fill-rule="nonzero">
            <g id="Design" transform="translate(256.000000, 1178.000000)">
                <g id="Design_icon" transform="translate(28.000000, 28.000000)">
                    <path d="M33.6,88.8 C32.2745166,88.8 31.2,89.8745166 31.2,91.2 L31.2,103.2 C31.2,104.525483 32.2745166,105.6 33.6,105.6 C34.9254834,105.6 36,104.525483 36,103.2 L36,91.2 C36,89.8745166 34.9254834,88.8 33.6,88.8 Z" id="Path"></path>
                    <path d="M141.6,26.4 L134.4,26.4 L134.4,2.4 C134.4,1.0745166 133.325483,0 132,0 L117.6,0 C116.274517,0 115.2,1.0745166 115.2,2.4 L115.2,26.4 L2.4,26.4 C1.0745166,26.4 0,27.4745166 0,28.8 L0,115.2 C0,116.525483 1.0745166,117.6 2.4,117.6 L14.4,117.6 L14.4,124.8 C14.4,135.403867 22.9961328,144 33.6,144 C44.2038672,144 52.8,135.403867 52.8,124.8 L52.8,117.6 L141.6,117.6 C142.925483,117.6 144,116.525483 144,115.2 L144,28.8 C144,27.4745166 142.925483,26.4 141.6,26.4 Z M129.6,62.4 L120,62.4 L120,14.4 L129.6,14.4 L129.6,62.4 Z M128.3592,67.2 L124.8,75.5064 L121.2408,67.2 L128.3592,67.2 Z M120,4.8 L129.6,4.8 L129.6,9.6 L120,9.6 L120,4.8 Z M13.4064,31.2 L4.8,39.8064 L4.8,31.2 L13.4064,31.2 Z M16.8,34.5936 L16.8,43.2 L8.1936,43.2 L16.8,34.5936 Z M48,124.8 C48,132.7529 41.5529004,139.2 33.6,139.2 C25.6470996,139.2 19.2,132.7529 19.2,124.8 L19.2,96 C19.2,88.0470996 25.6470996,81.6 33.6,81.6 C41.5529004,81.6 48,88.0470996 48,96 L48,124.8 Z M139.2,112.8 L52.8,112.8 L52.8,96 C52.8,85.3961328 44.2038672,76.8 33.6,76.8 C22.9961328,76.8 14.4,85.3961328 14.4,96 L14.4,112.8 L4.8,112.8 L4.8,48 L19.2,48 C20.5254834,48 21.6,46.9254834 21.6,45.6 L21.6,31.2 L115.2,31.2 L115.2,64.8 C115.2,64.8336 115.2192,64.8624 115.2192,64.8984 C115.226777,65.1745901 115.281988,65.4473979 115.3824,65.7048 L115.3824,65.7408 L115.3824,65.7408 L122.5824,82.5408 C122.960787,83.4228071 123.828253,83.9945819 124.788,83.9945819 C125.747747,83.9945819 126.615213,83.4228071 126.9936,82.5408 L134.1936,65.7408 L134.1936,65.7408 L134.1936,65.7048 C134.294012,65.4473979 134.349223,65.1745901 134.3568,64.8984 C134.3568,64.8624 134.376,64.8336 134.376,64.8 L134.376,31.2 L139.176,31.2 L139.2,112.8 Z" id="Shape"></path>
                    <path d="M132,103.2 L127.2,103.2 C125.874517,103.2 124.8,104.274517 124.8,105.6 C124.8,106.925483 125.874517,108 127.2,108 L132,108 C133.325483,108 134.4,106.925483 134.4,105.6 C134.4,104.274517 133.325483,103.2 132,103.2 Z" id="Path"></path>
                    <path d="M117.6,103.2 L112.8,103.2 C111.474517,103.2 110.4,104.274517 110.4,105.6 C110.4,106.925483 111.474517,108 112.8,108 L117.6,108 C118.925483,108 120,106.925483 120,105.6 C120,104.274517 118.925483,103.2 117.6,103.2 Z" id="Path"></path>
                    <path d="M97.8576,44.0808 C97.0184893,43.0550244 95.5067728,42.9035304 94.4808,43.7424 L69.6744,64.0392 L47.2056,43.8168 C46.3788037,43.0727073 45.14907,42.9942348 44.2344,43.6272 L13.0344,65.2272 C12.3068265,65.7058831 11.8956699,66.5411538 11.9600844,67.4096879 C12.0244989,68.278222 12.5543745,69.0437014 13.3446022,69.4098174 C14.13483,69.7759333 15.0613819,69.6852233 15.7656,69.1728 L45.4056,48.6528 L67.9944,68.9832 C68.8741057,69.7731125 70.1980428,69.8046834 71.1144,69.0576 L97.5144,47.4576 C98.0077162,47.0553287 98.3210194,46.4735591 98.3853824,45.8402815 C98.4497454,45.2070039 98.2598955,44.5740965 97.8576,44.0808 Z" id="Path"></path>
                    <path d="M90.8352,75.528 C90.3682599,74.8637474 89.6071511,74.4684296 88.7952,74.4684296 C87.9832489,74.4684296 87.2221401,74.8637474 86.7552,75.528 L74.7552,94.728 C74.2918736,95.4693045 74.2682638,96.4039031 74.6935695,97.1676562 C75.1188751,97.9314093 75.9258196,98.4035032 76.8,98.4 L100.8,98.4 C101.672462,98.4000021 102.476204,97.9265378 102.899147,97.1634456 C103.32209,96.4003535 103.297605,95.4678458 102.8352,94.728 L90.8352,75.528 Z M81.12,93.6 L88.8,81.3288 L96.48,93.6 L81.12,93.6 Z" id="Shape"></path>
                </g>
            </g>
        </g>
    </g>
</svg>