<?xml version="1.0" encoding="UTF-8"?>
<svg width="117px" height="144px" viewBox="0 0 117 144" version="1.1" xmlns="http://www.w3.org/2000/svg" xmlns:xlink="http://www.w3.org/1999/xlink">
    <!-- Generator: sketchtool 54.1 (76490) - https://sketchapp.com -->
    <title>5E978530-68C1-4E76-923F-53BEAAB1AFF1</title>
    <desc>Created with sketchtool.</desc>
    <g id="Page-1" stroke="none" stroke-width="1" fill="none" fill-rule="evenodd">
        <g id="About-us" transform="translate(-625.000000, -1206.000000)" fill="#000000" fill-rule="nonzero">
            <g id="Front-end" transform="translate(583.000000, 1178.000000)">
                <g id="Front-end_icon" transform="translate(42.000000, 28.000000)">
                    <path d="M116.034783,76.8 L116.034783,12 C116.034783,5.42608696 110.608696,0 104.034783,0 L12.8347826,0 C6.26086957,0 0.834782609,5.42608696 0.834782609,12 L0.834782609,76.8 C0.834782609,83.373913 6.26086957,88.8 12.8347826,88.8 L45.7043478,88.8 L42.2608696,100.8 L34.4347826,100.8 L34.4347826,105.6 L82.4347826,105.6 L82.4347826,100.8 L74.6086957,100.8 L71.1652174,88.8 L104.034783,88.8 C110.608696,88.8 116.034783,83.373913 116.034783,76.8 Z M12.8347826,4.8 L104.034783,4.8 C108,4.8 111.234783,8.03478261 111.234783,12 L111.234783,67.2 L5.63478261,67.2 L5.63478261,12 C5.63478261,8.03478261 8.86956522,4.8 12.8347826,4.8 Z M69.7043478,100.8 L47.1652174,100.8 L50.6086957,88.8 L66.1565217,88.8 L69.7043478,100.8 Z M104.034783,84 L12.8347826,84 C8.86956522,84 5.63478261,80.7652174 5.63478261,76.8 L5.63478261,72 L111.234783,72 L111.234783,76.8 C111.234783,80.7652174 108,84 104.034783,84 Z" id="Shape"></path>
                    <path d="M10.4347826,110.4 C9.07826087,110.4 8.03478261,111.443478 8.03478261,112.8 L8.03478261,141.6 C8.03478261,142.956522 9.07826087,144 10.4347826,144 L77.6347826,144 C78.9913043,144 80.0347826,142.956522 80.0347826,141.6 L80.0347826,112.8 C80.0347826,111.443478 78.9913043,110.4 77.6347826,110.4 L10.4347826,110.4 Z M75.2347826,139.2 L12.8347826,139.2 L12.8347826,115.2 L75.2347826,115.2 L75.2347826,139.2 Z" id="Shape"></path>
                    <rect id="Rectangle" x="17.6347826" y="129.6" width="4.8" height="4.8"></rect>
                    <rect id="Rectangle" x="17.6347826" y="120" width="4.8" height="4.8"></rect>
                    <rect id="Rectangle" x="27.2347826" y="120" width="4.8" height="4.8"></rect>
                    <rect id="Rectangle" x="36.8347826" y="120" width="4.8" height="4.8"></rect>
                    <rect id="Rectangle" x="56.0347826" y="120" width="4.8" height="4.8"></rect>
                    <rect id="Rectangle" x="46.4347826" y="120" width="4.8" height="4.8"></rect>
                    <rect id="Rectangle" x="65.6347826" y="129.6" width="4.8" height="4.8"></rect>
                    <rect id="Rectangle" x="65.6347826" y="120" width="4.8" height="4.8"></rect>
                    <rect id="Rectangle" x="27.2347826" y="129.6" width="33.6" height="4.8"></rect>
                    <path d="M84.8347826,122.4 L84.8347826,132 C84.8347826,138.678261 90.1565217,144 96.8347826,144 C103.513043,144 108.834783,138.678261 108.834783,132 L108.834783,122.4 C108.834783,115.721739 103.513043,110.4 96.8347826,110.4 C90.1565217,110.4 84.8347826,115.721739 84.8347826,122.4 Z M104.034783,122.4 L104.034783,132 C104.034783,135.965217 100.8,139.2 96.8347826,139.2 C92.8695652,139.2 89.6347826,135.965217 89.6347826,132 L89.6347826,122.4 C89.6347826,118.434783 92.8695652,115.2 96.8347826,115.2 C100.8,115.2 104.034783,118.434783 104.034783,122.4 Z" id="Shape"></path>
                    <rect id="Rectangle" x="94.4347826" y="120" width="4.8" height="4.8"></rect>
                    <polygon id="Rectangle" transform="translate(58.369007, 38.466000) rotate(-74.031780) translate(-58.369007, -38.466000) " points="40.8910085 36.066036 75.8470054 36.066036 75.8470054 40.865964 40.8910085 40.865964"></polygon>
                    <path d="M42.4695652,52.2782609 L45.4956522,48.626087 L33.3913043,38.4 L45.6,28.2782609 L42.573913,24.626087 L28.0695652,36.5217391 C27.026087,37.3565217 26.9217391,38.9217391 27.7565217,39.8608696 C27.8608696,39.9652174 27.9652174,40.0695652 28.0695652,40.173913 L42.4695652,52.2782609 Z" id="Path"></path>
                    <path d="M74.4,52.2782609 L88.8,40.2782609 C89.8434783,39.4434783 89.9478261,37.8782609 89.1130435,36.9391304 C89.0086957,36.8347826 88.9043478,36.7304348 88.8,36.626087 L74.4,24.5217391 L71.373913,28.173913 L83.4782609,38.4 L71.2695652,48.5217391 L74.4,52.2782609 Z" id="Path"></path>
                </g>
            </g>
        </g>
    </g>
</svg>