<svg id="Layer_1" data-name="Layer 1" xmlns="http://www.w3.org/2000/svg" viewBox="0 0 144 144"><defs><style>.cls-1{fill:#fff;stroke:#231f20;stroke-linecap:round;stroke-linejoin:round;stroke-width:4px;}</style></defs><title>about us - icon</title><path class="cls-1" d="M36,19.7H2.49v88.85H35.9c19.91,0,36,12.89,36,28.8H72V48.51C72,32.6,55.86,19.7,36,19.7Z"/><path class="cls-1" d="M108.05,19.7h33.46v88.85H108.1c-19.91,0-36,12.89-36,28.8H72V48.51C72,32.6,88.14,19.7,108.05,19.7Z"/><path class="cls-1" d="M100.81,10.69h31.27V99.54H100.85A28.8,28.8,0,0,0,72,128.34h0V39.5A28.81,28.81,0,0,1,100.81,10.69Z"/><path class="cls-1" d="M43.19,10.69H11.92V99.54H43.15A28.8,28.8,0,0,1,72,128.34h0V39.5A28.81,28.81,0,0,0,43.19,10.69Z"/><line class="cls-1" x1="23.04" y1="28.35" x2="41.96" y2="28.35"/><line class="cls-1" x1="23.04" y1="37.58" x2="41.96" y2="37.58"/></svg>