<?xml version="1.0" encoding="UTF-8"?>
<svg width="73px" height="74px" viewBox="0 0 73 74" version="1.1" xmlns="http://www.w3.org/2000/svg" xmlns:xlink="http://www.w3.org/1999/xlink">
    <!-- Generator: sketchtool 54.1 (76490) - https://sketchapp.com -->
    <title>8F2AD90A-87B0-4A15-8732-AC207C0C55A7</title>
    <desc>Created with sketchtool.</desc>
    <g id="Page-1" stroke="none" stroke-width="1" fill="none" fill-rule="evenodd">
        <g id="Announcement" transform="translate(-148.000000, -374.000000)" fill-rule="nonzero">
            <g id="visual" transform="translate(0.000000, -1.000000)">
                <g id="it-symbol" transform="translate(148.000000, 375.460296)">
                    <rect id="Rectangle-path" fill="#FF595A" x="0" y="0" width="73" height="73" rx="10"></rect>
                    <polygon id="Rectangle-path" fill="#FFFFFF" points="17 5 29.484874 5 29.484874 16.3589337 17 16.3589337"></polygon>
                    <path d="M58.2989928,30.909181 L59.1636652,30.909181 L59.1636652,21.578184 L50.8964018,21.578184 L50.8964018,9 L38.7163404,9 L38.7163404,21.578184 L17,21.578184 L17,30.909181 L17,30.909181 L17,68.7868082 L29.484874,68.7868082 L29.484874,30.909181 L38.7163404,30.909181 L38.7163404,59.8912577 C38.7163404,62.8274114 39.4068342,65.000497 40.7878217,66.4105143 C42.9194361,68.6333651 46.8944409,69.6411128 52.7128359,69.4337573 L58.5415987,69.2222547 L58.5415987,56.2894929 C58.1372555,56.2894929 57.7266916,56.3392582 57.2974658,56.3516995 L56.1093188,56.3516995 C53.6210529,56.3516995 52.1239463,56.1153143 51.6179989,55.6425437 C51.1265664,55.1697732 50.8839605,53.9629643 50.8839605,52.0345582 L50.8839605,30.909181 L58.2989928,30.909181 Z" id="Shape" fill="#FFFFFF"></path>
                </g>
            </g>
        </g>
    </g>
</svg>