<?xml version="1.0" encoding="UTF-8"?>
<svg width="18px" height="18px" viewBox="0 0 18 18" version="1.1" xmlns="http://www.w3.org/2000/svg" xmlns:xlink="http://www.w3.org/1999/xlink">
    <!-- Generator: sketchtool 53.2 (72643) - https://sketchapp.com -->
    <title>ECBF88C0-1C40-48C5-A1AE-D294AB10EBD1</title>
    <desc>Created with sketchtool.</desc>
    <g id="Page-1" stroke="none" stroke-width="1" fill="none" fill-rule="evenodd">
        <g id="Sign-in-Page" transform="translate(-511.000000, -311.000000)" fill="#68C7E9" fill-rule="nonzero">
            <g id="Email" transform="translate(483.000000, 291.000000)">
                <path d="M40.15,31.0999883 C41.8749942,30.0499766 42.9999766,28.1750058 42.9999766,26.0000117 C43.0000117,22.7 40.2999766,20 37,20 C33.7000234,20 30.9999883,22.7 30.9999883,26.0000117 C30.9999883,28.1750058 32.1249708,30.0500117 33.8499649,31.0999883 C30.8499766,32.2250058 28.5999766,34.85 28,38 L29.5000117,38 C30.25,34.5500117 33.3250292,31.9999883 37,31.9999883 C40.6749708,31.9999883 43.75,34.5499766 44.4999883,38 L46,38 C45.4000234,34.7749942 43.1500234,32.15 40.15,31.0999883 Z M32.5,26.0000117 C32.5,23.5250292 34.5250175,21.5000117 37,21.5000117 C39.4749825,21.5000117 41.5,23.5250292 41.5,26.0000117 C41.5,28.4749942 39.4749825,30.5000117 37,30.5000117 C34.5250175,30.5000117 32.5,28.4749942 32.5,26.0000117 Z" id="Shape"></path>
            </g>
        </g>
    </g>
</svg>